<svg id="Grupo_29" data-name="Grupo 29" xmlns="http://www.w3.org/2000/svg" width="160.637" height="30" viewBox="0 0 160.637 30">
  <g id="Grupo_1" data-name="Grupo 1" transform="translate(0.105 25.632)">
    <path id="Caminho_1" data-name="Caminho 1" d="M74.855,82.071h-.07c-2.9,0-4.8-.755-6.018-1.829v4.315H80.873V80.189C79.661,81.278,77.776,82.071,74.855,82.071Z" transform="translate(-68.768 -80.189)" fill="#ff8555"/>
    <path id="Caminho_2" data-name="Caminho 2" d="M204.9,82.071h-.07c-2.9,0-4.8-.755-6.018-1.829v4.315h12.105V80.189C209.709,81.278,207.825,82.071,204.9,82.071Z" transform="translate(-93.418 -80.189)" fill="#ff8555"/>
  </g>
  <g id="Grupo_21" data-name="Grupo 21" transform="translate(0)">
    <g id="Grupo_20" data-name="Grupo 20">
      <g id="Grupo_3" data-name="Grupo 3" transform="translate(15.374 4.793)">
        <g id="Grupo_2" data-name="Grupo 2">
          <path id="Caminho_3" data-name="Caminho 3" d="M93.731,54.476h.279c3.687,0,6.121,1.461,6.121,5.148v14.61c0,3.687-2.435,5.147-6.121,5.147h-.279c-3.687,0-6.122-1.46-6.122-5.147V59.624C87.609,55.9,90.044,54.476,93.731,54.476Zm.139,21.358c1.322,0,2.226-.487,2.226-2.226V60.251c0-1.739-.9-2.226-2.226-2.226s-2.226.487-2.226,2.226V73.608C91.644,75.347,92.549,75.834,93.871,75.834Z" transform="translate(-87.609 -54.476)" fill="#fffaf9"/>
        </g>
      </g>
      <g id="Grupo_5" data-name="Grupo 5" transform="translate(31.237 5.072)">
        <g id="Grupo_4" data-name="Grupo 4">
          <path id="Caminho_4" data-name="Caminho 4" d="M107.181,79.169V54.82h4.035l5.113,15.062V54.82h3.687V79.169H116.19l-5.322-15.827V79.169Z" transform="translate(-107.181 -54.82)" fill="#fffaf9"/>
        </g>
      </g>
      <g id="Grupo_7" data-name="Grupo 7" transform="translate(47.064 4.793)">
        <g id="Grupo_6" data-name="Grupo 6">
          <path id="Caminho_5" data-name="Caminho 5" d="M134.78,63.45V60.041a2.053,2.053,0,1,0-4.1,0v1.67a2.457,2.457,0,0,0,1.566,2.47l2.852,1.6c2.331,1.322,3.722,2.4,3.722,5.009V74.3c0,3.757-2.331,5.078-6.018,5.078h-.07c-3.688,0-6.018-1.286-6.018-5.078V70.06h3.965v3.687a2.088,2.088,0,1,0,4.175,0V71.834a2.481,2.481,0,0,0-1.6-2.539l-2.818-1.6c-2.365-1.357-3.722-2.47-3.722-5.009v-3.2c0-3.618,2.644-5.009,5.983-5.009h.07c3.339,0,5.983,1.392,5.983,5.009V63.45Z" transform="translate(-126.71 -54.476)" fill="#fffaf9"/>
        </g>
      </g>
      <g id="Grupo_9" data-name="Grupo 9" transform="translate(60.561 5.072)">
        <g id="Grupo_8" data-name="Grupo 8">
          <path id="Caminho_6" data-name="Caminho 6" d="M155.538,58.368h-4.069v20.8h-4.035v-20.8h-4.07V54.82h12.175Z" transform="translate(-143.363 -54.82)" fill="#fffaf9"/>
        </g>
      </g>
      <g id="Grupo_11" data-name="Grupo 11" transform="translate(74.823 5.072)">
        <g id="Grupo_10" data-name="Grupo 10">
          <path id="Caminho_7" data-name="Caminho 7" d="M170.109,79.169l-3.1-9.7H165v9.7h-4.034V54.82h6.3c3.687,0,6.121,1.46,6.121,5.148v4.348c0,2.33-.973,3.791-2.643,4.522l3.479,10.331ZM165,65.986h2.122c1.322,0,2.226-.487,2.226-2.226V60.594c0-1.739-.9-2.226-2.226-2.226H165Z" transform="translate(-160.961 -54.82)" fill="#fffaf9"/>
        </g>
      </g>
      <g id="Grupo_13" data-name="Grupo 13" transform="translate(90.337 5.072)">
        <g id="Grupo_12" data-name="Grupo 12">
          <path id="Caminho_8" data-name="Caminho 8" d="M192.347,74.3c0,3.756-2.366,5.147-6.052,5.147h-.139c-3.687,0-6.052-1.356-6.052-5.147V54.82h4.035V73.673c0,1.739.765,2.226,2.087,2.226s2.087-.487,2.087-2.226V54.82h4.035Z" transform="translate(-180.103 -54.82)" fill="#fffaf9"/>
        </g>
      </g>
      <g id="Grupo_15" data-name="Grupo 15" transform="translate(120.531 5.072)">
        <g id="Grupo_14" data-name="Grupo 14">
          <path id="Caminho_9" data-name="Caminho 9" d="M217.359,79.169V54.82h10.678v3.548h-6.643v6.678h5.565v3.548h-5.565V75.62h6.748v3.548Z" transform="translate(-217.359 -54.82)" fill="#fffaf9"/>
        </g>
      </g>
      <g id="Grupo_17" data-name="Grupo 17" transform="translate(134.167 5.072)">
        <g id="Grupo_16" data-name="Grupo 16">
          <path id="Caminho_10" data-name="Caminho 10" d="M246.531,59.968V74.021c0,3.687-2.435,5.148-6.122,5.148h-6.226V54.82h6.226C244.1,54.82,246.531,56.28,246.531,59.968Zm-6.261-1.6h-2.053V75.62h2.053c1.322,0,2.226-.487,2.226-2.226v-12.8C242.5,58.854,241.592,58.368,240.27,58.368Z" transform="translate(-234.183 -54.82)" fill="#fffaf9"/>
        </g>
      </g>
      <g id="Grupo_19" data-name="Grupo 19" transform="translate(149.855 5.072)">
        <g id="Grupo_18" data-name="Grupo 18">
          <path id="Caminho_11" data-name="Caminho 11" d="M253.54,79.169V54.82h10.679v3.548h-6.643v6.678h5.565v3.548h-5.565V75.62h6.747v3.548Z" transform="translate(-253.54 -54.82)" fill="#fffaf9"/>
        </g>
      </g>
      <path id="Caminho_12" data-name="Caminho 12" d="M80.953,68.319c0,3.756-2.435,5.148-6.122,5.148h-.07c-3.687,0-6.122-1.357-6.122-5.148V53.71c0-3.617,2.435-5.148,6.122-5.148h.07c3.687,0,6.122,1.531,6.122,5.148v3.5H76.918V54.337c0-1.7-.835-2.226-2.122-2.226s-2.122.522-2.122,2.226V67.694c0,1.7.835,2.226,2.122,2.226s2.122-.521,2.122-2.226V63.855h4.035Z" transform="translate(-68.639 -48.562)" fill="#fffaf9"/>
      <path id="Caminho_13" data-name="Caminho 13" d="M206.887,57.213V54.127a2.053,2.053,0,1,0-4.1,0V55.8a2.457,2.457,0,0,0,1.566,2.47l2.852,1.6c2.33,1.322,3.722,2.4,3.722,5.009v3.513c0,3.756-2.332,5.078-6.018,5.078h-.07c-3.687,0-6.017-1.287-6.017-5.078V63.86h3.965v3.972a2.088,2.088,0,1,0,4.175,0V65.92a2.482,2.482,0,0,0-1.6-2.539l-2.817-1.6c-2.365-1.356-3.722-2.469-3.722-5.009v-3.2c0-3.617,2.644-5.009,5.983-5.009h.07c3.339,0,5.983,1.392,5.983,5.009v3.642Z" transform="translate(-93.313 -48.562)" fill="#fffaf9"/>
    </g>
  </g>
</svg>
